<svg width="1517" height="2120" viewBox="0 0 1517 2120" fill="none" xmlns="http://www.w3.org/2000/svg">
<path d="M1517 758.5C1517 1345 758.5 2119.5 758.5 2119.5C758.5 2119.5 0 1345 0 758.5C0 339.592 339.592 0 758.5 0C1177.41 0 1517 339.592 1517 758.5Z" fill="#2A4054"/>
<circle cx="759.5" cy="751.5" r="700.5" fill="white"/>
<circle cx="759.5" cy="751.5" r="632.5" fill="#2A4054"/>
<path d="M695.13 1445C695.585 1440.34 691.688 1441.31 689.597 1441.02C673.87 1438.8 658.037 1437.25 642.388 1434.6C583.513 1424.61 526.785 1407.52 472.47 1382.54C442.656 1368.82 413.609 1353.68 386.146 1335.71C354.662 1315.12 324.06 1293.3 296.626 1267.36C285.313 1256.66 273.318 1246.64 262.512 1235.45C223.777 1195.38 190.042 1151.42 161.311 1103.6C136.869 1062.91 117.798 1019.83 102.245 975.082C85.5174 926.954 74.6826 877.59 68.8738 826.946C64.2003 786.198 63.377 745.37 65.8974 704.63C69.7244 642.775 81.7562 582.395 102.263 523.687C121.969 467.272 147.84 414.042 180.935 364.336C198.34 338.196 216.998 312.974 238.465 289.963C251.435 276.061 264.066 261.796 277.699 248.57C312.528 214.782 350.791 185.339 391.869 159.444C441.792 127.974 495.139 104.091 551.198 86.0699C589.393 73.7912 628.445 65.317 668.248 60.1787C702.584 55.7461 737.056 53.4004 771.645 54.1323C833.437 55.4398 894.251 63.9889 953.617 81.4418C999.159 94.8305 1043.14 112.352 1085 134.801C1136.56 162.455 1184.24 195.587 1227.51 235.229C1267.95 272.279 1303.63 313.268 1334.79 358.277C1360.23 395.013 1380.96 434.36 1398.9 475.214C1420.9 525.315 1435.35 577.679 1445.21 631.37C1447.51 643.91 1448.65 656.66 1450.48 669.29C1450.81 671.5 1451.95 673.59 1453.47 675.121C1454.24 681.505 1454.24 688.505 1453.54 696.301C1453.31 697.896 1453.77 698.695 1454.24 699.494C1454.24 703.746 1454.24 707.998 1453.84 713.213C1453.7 714.836 1453.97 715.495 1454.24 716.154C1454.24 743.269 1454.24 770.384 1453.51 798.291C1453.26 799.899 1453.75 800.716 1454.24 801.533C1454.24 808.532 1454.24 815.532 1453.46 822.898C1451.93 825.429 1450.83 827.539 1450.47 829.768C1447.72 846.748 1445.56 863.834 1442.39 880.734C1431.92 936.622 1414.9 990.464 1390.74 1041.98C1375.04 1075.46 1357.3 1107.89 1336.33 1138.34C1315.63 1168.4 1293.88 1197.79 1267.81 1223.56C1248.42 1242.73 1229.64 1262.66 1208.9 1280.25C1158.4 1323.09 1102.67 1357.92 1042.1 1384.96C988.868 1408.74 933.532 1425.34 876.022 1434.68C860.708 1437.17 845.26 1438.82 829.895 1441.02C827.805 1441.31 823.908 1440.34 825.347 1445C782.267 1445 739.187 1445 695.13 1445ZM869.271 1001.83C857.043 1029.81 844.978 1057.87 826.561 1082.71C825.683 1080.87 825.415 1079.27 825.724 1077.79C830.081 1056.86 834.582 1035.96 838.886 1015.03C839.921 1009.99 841.162 1004.81 838.778 997.703C823.153 1031.32 808.488 1063.18 793.558 1094.91C777.672 1128.68 761.532 1162.32 745.511 1196.02C743.884 1199.44 741.729 1202.74 740.809 1206.35C735.438 1227.45 731.14 1248.66 731.092 1270.66C731.062 1284.11 736.118 1294.52 744.935 1304.09C757.659 1317.91 773.703 1326.31 790.496 1333.73C792.945 1334.81 795.157 1336.43 797.479 1337.8C797.225 1338.56 796.97 1339.32 796.715 1340.08C777.736 1342.39 758.696 1340.1 739.564 1339.27C741.235 1347.29 746.286 1353.17 754.493 1356.71C772.067 1364.29 790.486 1366.37 809.209 1363.34C819.69 1361.64 826.892 1354.28 833.53 1345.47C828.094 1342.06 823.428 1339.19 818.816 1336.23C801.382 1325.04 783.511 1314.56 768.9 1299.4C755.64 1285.64 750.011 1269.45 753.599 1251.12C756.437 1236.63 761.041 1222.34 766.308 1208.51C777.557 1178.97 792.896 1151.61 814.05 1127.89C822.042 1118.93 830.85 1110.7 839.217 1102.21C862.917 1114.63 886.226 1124.04 910.454 1131.25C955.52 1144.65 1001.08 1152.63 1048.42 1147.44C1097.71 1142.03 1141.19 1124.11 1177.91 1090.47C1182.13 1086.6 1186.35 1082.73 1192.13 1077.43C1187.96 1128.05 1170.67 1169.41 1129.54 1198.54C1133.73 1203.39 1138.93 1205.64 1144.55 1204.62C1151.57 1203.33 1158.91 1201.79 1165.15 1198.52C1179.4 1191.05 1190.35 1179.33 1201.05 1167.53C1203.45 1164.89 1205.71 1162.13 1208.04 1159.43C1208.68 1159.87 1209.32 1160.32 1209.97 1160.77C1207.43 1166.05 1204.89 1171.32 1202.35 1176.59C1210.3 1169.82 1217.01 1162.22 1223.75 1154.64C1258.82 1115.13 1287.83 1071.43 1311.49 1024.33C1327.43 992.622 1340.26 959.524 1350.49 925.473C1365.39 875.946 1373.55 825.282 1375.34 773.67C1376.7 734.554 1374.95 695.511 1369.08 656.741C1363.19 617.763 1353.74 579.69 1340.23 542.619C1324.46 499.326 1304.74 458.055 1280 419.077C1251.48 374.153 1217.5 333.809 1178.75 297.64C1151.04 271.77 1120.98 248.711 1088.73 228.404C1030.01 191.428 967.043 165.042 899.53 149.414C862.089 140.747 824.168 136.056 785.716 134.025C759.664 132.65 733.785 133.523 708 135.558C664.568 138.986 622.054 147.728 580.186 160.193C523.182 177.165 470.378 202.69 420.759 235.108C374.26 265.487 333.145 302.04 296.338 343.631C259.764 384.958 229.791 430.68 205.439 479.994C184.721 521.946 169.629 566.04 159.282 611.757C151.952 644.14 146.917 676.883 144.986 709.944C143.292 738.935 143.677 767.985 145.854 797.081C148.933 838.242 156.377 878.47 167.304 918.144C185.67 984.827 215.45 1046.2 255.16 1102.63C270.006 1123.73 286.835 1143.46 303.288 1163.38C310.983 1172.7 320 1180.91 328.289 1189.75C333.707 1195.52 339.532 1198.1 347.512 1194.76C353.85 1192.11 360.608 1190.46 368.732 1188.34C372.243 1186.25 375.724 1185.39 379.103 1188.59C385.282 1194.46 391.461 1200.33 397.528 1206.09C396.498 1207.93 395.746 1209.27 394.598 1211.31C398.828 1209.21 402.412 1207.84 405.526 1205.77C409.469 1203.14 413.778 1200.53 416.604 1196.88C422.695 1189.02 420.02 1182.99 410.14 1182.08C403.655 1181.48 397.031 1181.87 390.507 1182.35C382.702 1182.92 374.938 1184.05 367.249 1183.35C398.487 1172.16 428.046 1157.66 455.53 1138.98C486.159 1118.15 512.177 1092.6 533.313 1062.27C555.413 1030.56 570.68 995.76 578.083 956.743C594.353 966.744 605.376 980.45 613.359 996.828C619.192 1008.79 620.008 1021.02 616.155 1033.96C609.623 1055.9 600.788 1076.78 589.898 1096.87C570.794 1132.13 546.958 1163.6 516.434 1189.81C485.368 1216.49 450.551 1235.81 410.082 1244.01C407.515 1244.52 404.231 1247.05 402.333 1242.61C412.386 1239.23 422.289 1236.47 431.7 1232.54C437.961 1229.92 444.027 1226.24 449.254 1221.91C455.006 1217.15 452.839 1209.62 445.471 1207.99C440.823 1206.97 435.768 1206.65 431.053 1207.25C410.664 1209.85 390.316 1212.84 372.735 1224.61C368.445 1221.62 364.504 1218.88 360.046 1214.91C356.939 1212.67 353.833 1210.43 350.727 1208.19C350.357 1208.66 349.986 1209.13 349.616 1209.61C352.817 1212.13 356.017 1214.66 360.187 1218.24C374.049 1229.12 387.852 1240.07 401.833 1250.79C404.184 1252.59 407.312 1254.46 410.066 1254.43C416.233 1254.38 422.445 1253.46 428.544 1252.36C466.662 1245.49 498.225 1226.26 525.168 1199.31C546.7 1177.77 565.349 1153.64 582.684 1128.66C603.06 1099.3 620.511 1068.25 626.59 1032.38C632.097 999.89 621.995 973.03 595.217 953.035C578.971 947.414 578.233 935.587 582.677 921.69C582.783 921.36 582.971 921.05 583.037 920.714C590.573 882.119 598.317 843.564 605.566 804.915C611.804 771.655 614.999 737.965 616.549 704.224C618.074 671.039 616.31 637.88 610.603 605.03C602.17 556.491 584.219 512.727 546.916 478.863C542.463 474.82 541.381 470.84 541.881 465.35C542.788 455.387 543.74 445.381 543.747 435.393C543.755 423.659 543.248 411.879 542.104 400.204C540.787 386.754 538.968 373.41 527.258 363.83C522.204 359.696 520.84 352.951 521.833 346.681C523.694 334.938 527.716 324.001 536.557 315.357C546.481 305.654 556.017 295.546 566.116 286.032C570.779 281.64 574 276.801 576.001 270.755C580.406 257.448 589.09 246.987 600.54 239.476C616.031 229.315 633.515 225.742 651.591 227.126C652.493 228.015 653.131 228.42 653.458 229C672.117 262.02 690.626 295.125 709.418 328.069C732.682 368.856 756.179 409.51 779.577 450.221C783.049 456.261 786.931 461.559 793.579 464.956C812.338 474.542 830.863 484.6 849.328 494.748C869.192 505.666 889.722 515.718 902.07 536.399C903.8 539.297 906.525 543.467 911.911 543.319C913.033 530.683 914.118 518.455 915.299 505.151C917.115 506.86 917.804 507.229 918.067 507.796C929.492 532.5 940.94 557.195 952.188 581.98C953.425 584.704 954.052 587.966 954.014 590.967C953.713 614.509 952.987 638.047 952.77 661.589C952.472 693.782 948.7 725.65 944.237 757.452C939.676 789.953 932.754 821.973 923.943 853.589C913.439 891.285 898.87 927.53 884.769 963.948C879.839 976.68 875.223 989.534 870.573 1002.18C870.573 1002.18 870.701 1002.05 869.271 1001.83Z" fill="#FEFEFE"/>
<path d="M1454.24 698.974C1453.77 698.696 1453.31 697.897 1453.54 697.255C1454.24 697.412 1454.24 698.453 1454.24 698.974Z" fill="#3F3B3B"/>
<path d="M1454.24 715.633C1453.97 715.495 1453.7 714.836 1453.84 714.124C1454.24 714.071 1454.24 715.112 1454.24 715.633Z" fill="#3F3B3B"/>
<path d="M1454.24 801.012C1453.75 800.716 1453.26 799.899 1453.51 799.267C1454.24 799.451 1454.24 800.492 1454.24 801.012Z" fill="#3F3B3B"/>
<path d="M383.817 995.112C388.963 989.587 393.927 983.878 399.301 978.584C406.464 971.526 413.349 964.348 417.478 954.478C409.615 947.511 400.953 950.201 391.849 951.426C419.165 940.005 436.212 919.783 446.469 891.044C439.474 893.267 433.629 895.125 426.122 897.51C428.269 894.389 429.322 892.455 430.746 890.85C442.1 878.057 451.319 863.865 456.033 847.399C463.151 822.54 475.576 800.237 487.82 777.792C490.092 773.627 492.455 769.51 495.131 764.738C485.962 761.097 479.498 764.171 473.028 770.112C476.068 760.077 479.085 750.034 482.151 740.007C487.333 723.063 492.026 705.751 489.387 688.067C486.906 671.444 482.846 654.91 477.854 638.842C470.151 614.052 457.509 591.364 445.358 568.509C433.224 545.686 421.126 522.787 414.188 497.686C412.643 492.098 411.786 486.225 411.422 480.432C411.068 474.803 412.437 469.629 418.026 466.282C420.162 465.003 421.619 462.337 422.98 460.061C428.828 450.28 434.506 440.399 440.284 430.577C444.227 423.874 449.772 420.244 457.87 419.62C467.475 418.88 476.99 416.977 487.618 415.42C488.333 420.488 489.383 425.417 489.656 430.388C490.234 440.925 493.678 449.728 502.515 456.212C510.859 462.335 518.57 469.347 527.084 475.205C533.411 479.559 537.337 485.199 540.276 492.014C550.287 515.225 558.536 538.984 563.276 563.877C563.594 565.548 564.216 567.161 564.787 570.493C566.496 583.419 568.116 594.653 569.609 606.705C569.648 609.712 569.812 611.899 569.861 614.594C570.161 615.639 570.575 616.177 570.922 617.655C570.883 630.786 570.911 642.977 570.455 655.472C569.907 656.478 569.842 657.179 569.633 658.82C567.79 692.184 562.157 724.034 553.114 755.099C545.538 781.128 535.971 806.578 526.782 832.539C526.129 833.493 525.98 834.191 525.591 835.278C525.351 835.668 525.285 836.58 524.752 836.772C524.062 837.661 523.905 838.358 523.407 839.694C521.066 844.71 519.067 849.086 516.541 853.928C499.574 884.966 481.114 914.123 456.15 939.148C455.035 939.61 454.687 940.162 454.005 941.056C452.396 942.523 451.391 943.82 449.739 945.417C447.071 948.395 445.34 951.363 442.986 953.704C426.931 969.665 409.495 983.888 389.282 995.482C387.102 995.527 385.46 995.319 383.817 995.112Z" fill="#FDFDFD"/>
<path d="M870.518 1002.26C875.48 1002.33 880.497 1002.33 887.007 1002.33C898.527 975.497 912.732 948.922 917.184 917.965C923.169 924.698 929.338 931.066 934.858 937.954C951.412 958.608 974.156 964.223 999.095 966.322C1030.76 968.989 1060.82 963.153 1090.57 953.04C1108.23 947.036 1126.36 942.409 1144.32 937.269C1146.83 936.549 1149.52 936.44 1154.19 935.739C1143.4 947.644 1133.03 956.972 1122.04 965.649C1110.89 974.443 1099.53 982.748 1083.66 982.648C1086.12 997.773 1092.46 1008.42 1107.71 1012.64C1091.49 1011.39 1076.21 1007.74 1059.09 1003.28C1062.22 1009 1064.56 1013.6 1067.18 1018.02C1073.23 1028.23 1080.99 1036.98 1090.32 1044.3C1105.07 1055.87 1121.3 1058.8 1139.1 1052.51C1162.22 1044.35 1179.99 1030.06 1190.85 1007.74C1191.39 1006.64 1191.92 1005.53 1193.91 1004.68C1193.91 1006.86 1194.33 1009.14 1193.85 1011.21C1186.93 1040.53 1176.66 1068.24 1153.53 1089.07C1135.8 1105.03 1114.7 1115.05 1091.89 1121.35C1062.95 1129.34 1033.49 1131.16 1003.51 1128.88C951.199 1124.91 901.636 1110.63 853.372 1090.92C851.159 1090.02 848.904 1089.22 845.891 1088.08C847.675 1084.25 849.31 1080.58 851.074 1076.98C859.133 1060.53 867.182 1044.07 875.353 1027.68C876.966 1024.44 877.939 1021.56 876.322 1017.87C874.275 1013.2 872.948 1008.22 871.006 1002.71C870.701 1002.05 870.573 1002.18 870.518 1002.26Z" fill="#FDFDFD"/>
<path d="M568.739 570.246C568.759 569.351 568.78 568.455 568.642 566.461C568.345 564.668 567.966 564.15 567.348 563.808C564.548 548.668 561.747 533.529 558.513 516.045C561.01 519.223 562.319 520.508 563.183 522.044C579.156 550.454 586.917 581.613 592.127 613.322C595.582 634.354 597.07 655.753 598.572 677.049C599.764 693.942 600.612 710.97 599.895 727.865C598.507 760.564 596.598 793.306 590.631 825.568C584.985 856.097 578.391 886.451 572.629 916.959C570.908 926.069 570.641 935.449 569.605 944.694C565.278 983.311 550.685 1018.11 529.448 1050.22C502.049 1091.65 465.04 1122.64 422.284 1147.22C403.748 1157.87 384.577 1167.17 364.663 1174.94C363.514 1175.39 362.388 1175.9 360.861 1175.68C365.795 1168.9 373.201 1165.58 379.87 1161.29C399.369 1148.75 418.523 1135.72 435.453 1119.79C440.16 1115.36 444.102 1110.07 448.114 1104.96C451.644 1100.46 452.035 1095.3 449.028 1090.44C446.01 1085.56 440.874 1085.25 436.046 1086.52C422.038 1090.21 408.137 1094.31 394.196 1098.25C391.8 1098.93 389.409 1099.62 387.016 1100.31C386.713 1099.62 386.41 1098.93 386.107 1098.24C389.251 1096.48 392.311 1094.54 395.553 1092.99C406.904 1087.55 416.986 1080.46 425.431 1071.05C433.895 1061.62 430.808 1050.33 418.414 1047.77C413.197 1046.69 407.52 1047.68 402.064 1047.96C399.752 1048.08 397.469 1048.77 393.968 1049.44C402.712 1033.43 413.031 1018.57 400.982 1000.63C407.61 995.144 414.247 989.648 421.885 983.468C424.204 981.263 425.522 979.742 427.083 978.239C427.326 978.256 427.3 977.77 427.915 977.864C429.625 976.799 430.72 975.641 431.821 974.45C431.828 974.418 431.893 974.418 432.558 974.299C435.528 971.49 437.833 968.801 440.119 966.081C440.1 966.051 440.16 966.09 440.744 966.053C441.627 965.351 441.927 964.686 442.205 963.993C442.182 963.965 442.242 964.007 442.826 963.97C443.71 963.269 444.01 962.604 444.287 961.911C444.265 961.882 444.324 961.925 444.908 961.888C445.792 961.186 446.092 960.521 446.369 959.828C446.347 959.8 446.407 959.842 446.991 959.806C447.874 959.104 448.174 958.439 448.455 957.746C448.436 957.718 448.495 957.753 449.038 957.755C450.229 956.913 450.877 956.069 451.804 955.021C452.083 954.817 452.291 954.159 452.491 954.053C452.691 953.948 453.233 953.234 453.582 953.109C453.931 952.985 454.304 952.344 454.894 952.085C466.633 938.7 478.343 926.001 488.757 912.316C497.487 900.845 504.704 888.223 513.143 875.723C515.346 872.193 516.996 869.052 518.866 865.772C519.086 865.632 519 865.118 519.329 865.134C520.12 864.887 520.256 864.508 520.578 863.433C565.131 782.589 581.686 696.753 573.25 604.941C571.792 592.778 570.265 581.512 568.739 570.246Z" fill="#FCFCFC"/>
<path d="M975.18 657.847C986.335 675.596 997.489 693.345 1008.64 711.095C1008.23 711.623 1007.81 712.151 1007.39 712.678C1001.33 709.413 995.263 706.148 988.054 702.265C989.704 711.134 991.172 718.987 992.626 726.843C995.195 740.726 997.991 754.573 1000.19 768.515C1000.93 773.228 1002.92 776.689 1005.93 780.187C1012.2 787.498 1018.57 794.821 1023.97 802.772C1036.22 820.821 1049.73 837.746 1064.86 853.487C1086.45 875.952 1110.05 895.98 1135.42 913.993C1139.83 917.118 1143.84 920.79 1148.86 924.887C1146.63 926.31 1145.69 927.317 1144.56 927.575C1114.3 934.523 1084.17 942.187 1053.7 948.077C1016.49 955.268 981.306 949.669 950.905 925.515C943.486 919.621 937.835 911.357 931.943 903.741C928.454 899.232 928.212 894.109 930.277 888.171C941.994 854.484 948.669 819.558 954.104 784.421C959.21 751.416 963.666 718.309 968.25 685.225C969.431 676.698 970.019 668.088 971.835 658.685C973.587 657.851 974.384 657.849 975.18 657.847Z" fill="#FDFDFD"/>
<path d="M389.282 995.482C389.693 995.559 389.566 995.888 389.613 996.718C385.337 999.283 380.885 1001.35 376.434 1003.41C376.051 1002.84 375.669 1002.27 375.287 1001.7C377.691 999.629 380.094 997.562 383.157 995.304C385.46 995.32 387.102 995.528 389.282 995.482Z" fill="#FCFCFC"/>
<path d="M975.199 657.049C974.384 657.849 973.587 657.851 972.193 657.852C971.782 655.792 971.969 653.732 972.156 651.673C972.712 651.605 973.267 651.538 973.822 651.471C974.287 653.065 974.752 654.659 975.199 657.049Z" fill="#FCFCFC"/>
</svg>
